<?xml version="1.0"?>
<svg width="100" height="100" xmlns="http://www.w3.org/2000/svg" xmlns:svg="http://www.w3.org/2000/svg">
 <g class="layer">
  <title>Layer 1</title>
  <rect fill="#f2f4f7" height="100" id="svg_1" rx="20" transform="matrix(1 0 0 1 0 0)" width="100" x="0" y="0"/>
  <path d="m46.46,42.48l0,0q0,4.06 -2.14,7.28q-2.13,3.22 -5.77,5.11l0,0q2.87,3.78 5.49,7.1q2.63,3.33 3.89,5.36l0,0q-0.63,2.23 -2.35,3.39q-1.71,1.16 -3.74,1.16l0,0q-2.66,0 -4.06,-1.16q-1.4,-1.16 -2.66,-3.18l0,0l-6.72,-10.43l-4.83,0l0,14.07q-0.78,0.21 -2.17,0.38q-1.4,0.17 -2.94,0.17l0,0q-3.29,0 -4.59,-1.11q-1.29,-1.12 -1.29,-4.06l0,0l0,-33.95q0,-1.41 0.73,-2.17q0.74,-0.78 2.14,-1.2l0,0q2.24,-0.83 5.39,-1.19q3.15,-0.35 6.58,-0.35l0,0q9.52,0 14.28,3.96q4.76,3.96 4.76,10.82zm-23.03,6.16l4.34,0q3.36,0 5.45,-1.51q2.11,-1.5 2.11,-4.58l0,0q0,-6.03 -8.05,-6.03l0,0q-1.13,0 -2.03,0.11q-0.92,0.1 -1.82,0.25l0,0l0,11.76zm63.77,-13.94l0,0q0,1.61 -0.84,2.84q-0.84,1.23 -1.96,1.93l0,0q-1.82,-1.2 -3.96,-2.1q-2.14,-0.92 -5.07,-0.92l0,0q-5.6,0 -8.75,3.54q-3.15,3.54 -3.15,10.05l0,0q0,6.72 3.32,10.11q3.33,3.4 9.14,3.4l0,0q3.01,0 5.14,-0.81q2.14,-0.8 3.95,-1.92l0,0q1.06,0.84 1.72,2.13q0.67,1.3 0.67,2.91l0,0q0,1.4 -0.74,2.62q-0.73,1.22 -2.55,2.07l0,0q-1.41,0.7 -3.79,1.29q-2.37,0.6 -5.87,0.6l0,0q-4.69,0 -8.75,-1.33q-4.06,-1.33 -7.07,-4.06q-3.01,-2.74 -4.73,-6.97q-1.72,-4.24 -1.72,-10.04l0,0q0,-5.46 1.72,-9.66q1.72,-4.2 4.66,-7.04q2.94,-2.83 6.86,-4.3q3.92,-1.48 8.4,-1.48l0,0q6.37,0 9.87,2.03q3.5,2.04 3.5,5.11z" fill="url(#svg_4)" id="svg_2"/>
 </g>
 <defs>
  <linearGradient id="svg_4" x1="0" x2="1" y1="0" y2="0">
   <stop id="jq_stop_6123" offset="0" stop-color="#101828"/>
   <stop id="jq_stop_3185" offset="1" stop-color="#3470ff" stop-opacity="1"/>
  </linearGradient>
 </defs>
</svg>